<ttFont>
          <CharString index="0">
            59 492 490 rmoveto
            -80 hlineto
            -19 -52 -86 callsubr
            -153 -117 64 -89 99 53 60 25 47 40 hvcurveto
            -70 14 43 -2 57 hhcurveto
            25 72 rlineto
            -35 -12 10 32 9 1 14 3 16 hvcurveto
            -164 277 -95 callsubr
            return
          </CharString>
          <CharString index="1">
            229 303 -14 rmoveto
            205 175 184 248 187 -99 109 -158 -206 -174 -184 -248 -187 99 -109 158 hvcurveto
            107 642 rmoveto
            119 50 -93 -123 -174 -101 -166 -159 -119 -49 94 122 174 100 166 159 hvcurveto
            return
          </CharString>
          <CharString index="2">
            -23 434 375 rmoveto
            74 -51 51 -95 -160 -107 -143 -155 -119 64 -93 136 64 54 21 17 37 vhcurveto
            4 71 rlineto
            -20 -43 -53 -9 -39 hhcurveto
            -71 -56 30 118 hvcurveto
            -3 14 33 -5 41 hhcurveto
            176 52 91 74 hvcurveto
            -155 45 rmoveto
            39 33 -16 -40 -40 -33 -53 -120 -44 -5 7 3 -21 hvcurveto
            97 34 55 42 62 hhcurveto
            return
          </CharString>
          <CharString index="3">
            33 206 -10 rmoveto
            157 112 142 160 117 -60 91 -125 -157 -112 -142 -161 -117 60 -90 125 hvcurveto
            71 430 rmoveto
            69 36 -45 -90 -119 -63 -96 -100 -70 -35 46 89 119 63 96 100 hvcurveto
            return
          </CharString>
          <CharString index="4">
            rmoveto
            50 44 36 58 22 hvcurveto
            -41 9 rlineto
            -32 -18 -22 -19 -28 -32 -37 49 -42 hhcurveto
            -37 -55 -24 -66 -23 hvcurveto
            44 -9 rlineto
            30 14 20 19 32 31 39 -51 39 hhcurveto
            endchar
          </CharString>
          <CharString index="5">
            187 280 -14 rmoveto
            177 105 119 192 34 hvcurveto
            71 403 rlineto
            -95 hlineto
            -63 -357 rlineto
            -137 -24 -49 -134 -141 hhcurveto
            -100 -30 68 89 36 5 39 7 39 hvcurveto
            63 357 rlineto
            -95 hlineto
            -71 -403 rlineto
            -6 -33 -3 -31 -29 vvcurveto
            -137 69 -81 146 vhcurveto
            return
          </CharString>
          <CharString index="6">
            87 510 hmoveto
            -102 -34 callsubr
            -96 hlineto
            -349 -700 rlineto
            100 hlineto
            91 189 rlineto
            231 hlineto
            25 -189 rlineto
            -41 275 rmoveto
            -169 hlineto
            136 292 rlineto
            return
          </CharString>
          <CharString index="7">
            rmoveto
            18 100 rlineto
            -71 hlineto
            -18 -100 rlineto
            -81 hmoveto
            -36 callsubr
            -70 hlineto
            -18 -100 rlineto
            endchar
          </CharString>
          <CharString index="8">
            13 381 -71 callsubr
            -64 -364 rlineto
            -39 -28 -38 -17 -39 hhcurveto
            -54 -24 32 60 21 3 22 50 285 hvcurveto
            -37 callsubr
            -2 -24 -20 vvcurveto
            -99 49 -45 87 59 36 21 43 36 vhcurveto
            -3 -54 rlineto
            return
          </CharString>
          <CharString index="9">
            33 427 -48 callsubr
            -303 -55 callsubr
            232 -62 callsubr
            -232 -50 callsubr
            295 -62 callsubr
            -391 -89 callsubr
            return
          </CharString>
          <CharString index="10">
            rmoveto
            76 83 50 95 32 -12 25 -17 16 hvcurveto
            25 19 20 32 41 vvcurveto
            37 -19 47 -79 -36 -37 -14 -11 -14 vhcurveto
            2 -53 rlineto
            13 18 28 4 19 hhcurveto
            32 11 -15 -20 -26 -12 -31 -59 hvcurveto
            -26 hlineto
            -16 -55 rlineto
            51 hlineto
            38 11 -21 -26 -53 -35 -16 -43 -29 -37 12 14 -5 hvcurveto
            -30 -66 rlineto
            -10 5 42 -20 45 hhcurveto
            return
          </CharString>
          <CharString index="11">
            rmoveto
            6 36 -114 106 -151 -106 -6 -36 147 82 rlineto
            endchar
          </CharString>
          <CharString index="12">
            rmoveto
            58 44 -43 -100 -135 -81 -72 -76 -70 -29 60 75 114 66 101 88 hvcurveto
            return
          </CharString>
          <CharString index="13">
            rmoveto
            10 57 rlineto
            -45 hlineto
            39 218 rlineto
            -62 hlineto
            -217 -275 rlineto
            158 hlineto
            -19 -103 rlineto
            73 hlineto
            18 103 rlineto
            -62 57 rmoveto
            -61 hlineto
            80 110 rlineto
            endchar
          </CharString>
          <CharString index="14">
            -13 -41 callsubr
            -65 -88 -89 -91 -145 -88 41 -51 66 hvcurveto
            133 713 rmoveto
            -75 hlineto
            -505 -712 rlineto
            76 hlineto
            8 345 rmoveto
            97 78 92 142 88 -42 50 -63 -89 -87 -89 -146 -87 41 -50 65 hvcurveto
            422 -18 rmoveto
            36 25 -38 -61 -102 -48 -78 -64 -39 callsubr
            54 hvcurveto
            -362 339 rmoveto
            33 24 -39 -59 -96 -52 -75 -55 -34 -23 38 58 99 56 74 51 hvcurveto
            return
          </CharString>
          <CharString index="15">
            rmoveto
            12 72 -185 -95 -7 -41 rlineto
            endchar
          </CharString>
          <CharString index="16">
            rmoveto
            7 41 -151 95 -13 -72 rlineto
            endchar
          </CharString>
          <CharString index="17">
            13 70 rlineto
            -101 hlineto
            93 120 35 59 54 vvcurveto
            39 -19 44 -65 -58 -45 -34 -20 -15 vhcurveto
            -65 vlineto
            17 12 36 42 46 hhcurveto
            24 13 -15 -26 -39 -25 -44 -170 -202 hvcurveto
            return
          </CharString>
          <CharString index="18">
            hlineto
            -123 -700 rlineto
            return
          </CharString>
          <CharString index="19">
            57 204 -14 rmoveto
            217 67 122 105 124 -101 36 -90 35 hvcurveto
            -70 27 -44 22 56 vvcurveto
            80 88 35 66 60 52 -29 -34 58 vhcurveto
            27 101 rlineto
            22 -31 -76 26 -83 hhcurveto
            -195 -71 -140 -89 -98 95 -36 74 -30 hvcurveto
            74 -30 60 -25 -74 vvcurveto
            -83 -76 -37 -86 -84 -64 36 34 -33 vhcurveto
            -32 -111 rlineto
            -23 34 72 -22 92 hhcurveto
            return
          </CharString>
          <CharString index="20">
            rmoveto
            69 41 52 51 40 -25 36 -54 -67 -44 -52 -52 -39 26 -36 54 hvcurveto
            26 148 rmoveto
            23 17 -20 -28 -43 -31 -28 -30 -23 -17 19 29 42 30 29 31 hvcurveto
            endchar
          </CharString>
          <CharString index="21">
            rlineto
            51 -26 -47 11 -41 hhcurveto
            -150 -108 -151 return
          </CharString>
          <CharString index="22">
            -92 138 -10 rmoveto
            167 28 112 58 83 -59 25 -43 15 hvcurveto
            -61 21 -28 11 40 vvcurveto
            49 42 25 54 47 36 -19 -24 21 vhcurveto
            24 82 rlineto
            15 -23 -39 17 -60 hhcurveto
            -142 -51 -94 -75 -81 58 -20 56 -18 hvcurveto
            34 -11 39 -14 -47 vvcurveto
            -41 -29 -29 -63 -65 -47 31 19 -19 vhcurveto
            -25 -87 rlineto
            -16 20 46 -27 82 hhcurveto
            return
          </CharString>
          <CharString index="23">
            16 86 -83 callsubr
            return
          </CharString>
          <CharString index="24">
            rlineto
            -97 hlineto
            -15 -86 28 -9 -46 -87 19 -13 rlineto
            return
          </CharString>
          <CharString index="25">
            66 378 rlineto
            -57 hlineto
            -12 -26 -41 -29 -20 -4 -7 -60 rcurveline
            20 3 16 7 10 7 -49 -276 rcurveline
            return
          </CharString>
          <CharString index="26">
            84 305 -14 rmoveto
            62 70 17 23 49 hvcurveto
            6 88 rlineto
            -19 -54 -55 -23 -60 hhcurveto
            -118 -54 90 127 174 100 165 167 64 46 -24 -19 47 hvcurveto
            26 88 rlineto
            23 -40 -65 18 -65 hhcurveto
            -208 -177 -182 -248 -188 101 -110 158 hvcurveto
            return
          </CharString>
          <CharString index="27">
            65 604 -30 callsubr
            -212 -291 -114 291 rlineto
            -100 hlineto
            148 -377 -57 -323 rlineto
            98 hlineto
            57 323 rlineto
            return
          </CharString>
          <CharString index="28">
            -226 123 -75 callsubr
            return
          </CharString>
          <CharString index="29">
            -63 210 -10 rmoveto
            59 45 18 19 30 hvcurveto
            3 72 rlineto
            -19 -39 -42 -11 -37 hhcurveto
            -77 -36 47 92 117 58 95 115 39 36 -11 -19 33 hvcurveto
            26 81 rlineto
            18 -27 -47 11 -50 hhcurveto
            -182 -94 -145 -156 -116 52 -93 135 hvcurveto
            return
          </CharString>
          <CharString index="30">
            rmoveto
            7 41 -146 -76 -119 76 -7 -41 115 -99 rlineto
            endchar
          </CharString>
          <CharString index="31">
            -61 -57 -23 5 -27 13 -14 vhcurveto
            -50 -38 -21 -44 -39 vvcurveto
            -48 32 -43 73 vhcurveto
            65 338 rmoveto
            27 8 -16 -18 -34 -17 -22 -38 -10 hvcurveto
            -27 7 -6 16 16 vvcurveto
            39 18 22 35 vhcurveto
            -24 -151 rmoveto
            23 -6 20 -20 -33 vvcurveto
            -40 -23 -31 -48 return
          </CharString>
          <CharString index="32">
            hmoveto
            123 -34 callsubr
            -95 -89 callsubr
            return
          </CharString>
          <CharString index="33">
            320 rmoveto
            -82 callsubr
            return
          </CharString>
          <CharString index="34">
            -22 487 490 rmoveto
            -101 hlineto
            -186 -364 -67 364 rlineto
            -101 hlineto
            103 -468 -148 -264 rlineto
            97 hlineto
            return
          </CharString>
          <CharString index="35">
            34 407 hmoveto
            53 296 2 25 22 vvcurveto
            99 -42 58 -104 -48 -46 -12 -50 -52 vhcurveto
            3 52 rlineto
            -77 hlineto
            -49 callsubr
            91 hlineto
            63 356 rlineto
            44 29 44 20 49 hhcurveto
            58 26 -28 -61 -17 -2 -20 -52 -294 hvcurveto
            return
          </CharString>
          <CharString index="36">
            hmoveto
            86 490 -40 callsubr
            return
          </CharString>
          <CharString index="37">
            rmoveto
            113 84 105 135 91 -47 63 -74 -103 -94 -105 -139 -90 45 -60 76 hvcurveto
            64 330 rmoveto
            33 27 -31 -64 -112 -51 -58 -60 -35 -26 27 62 117 63 59 49 hvcurveto
            endchar
          </CharString>
          <CharString index="38">
            rmoveto
            74 82 51 103 61 -40 28 -83 1 hvcurveto
            20 71 rlineto
            106 hlineto
            21 70 rlineto
            -169 hlineto
            -58 -201 rlineto
            60 hlineto
            60 12 -20 -22 -58 -40 -16 -35 -36 -27 13 16 -11 hvcurveto
            -29 -65 rlineto
            return
          </CharString>
          <CharString index="39">
            101 -71 callsubr
            -49 callsubr
            return
          </CharString>
          <CharString index="40">
            15 86 rlineto
            return
          </CharString>
          <CharString index="41">
            172 520 hmoveto
            124 -34 callsubr
            -96 hlineto
            -92 -524 -205 524 rlineto
            -100 -20 callsubr
            98 553 219 -553 rlineto
            return
          </CharString>
          <CharString index="42">
            186 289 37 rmoveto
            188 156 163 230 160 -89 103 -139 -187 -158 -162 -230 -160 90 -104 139 hvcurveto
            108 return
          </CharString>
          <CharString index="43">
            hlineto
            -15 -86 rlineto
            return
          </CharString>
          <CharString index="44">
            hlineto
            -99 -560 rlineto
            return
          </CharString>
          <CharString index="45">
            hlineto
            -67 callsubr
            return
          </CharString>
          <CharString index="46">
            19 562 -24 callsubr
            -439 -64 callsubr
            282 hlineto
            -431 -614 rlineto
            439 -62 callsubr
            -283 hlineto
            return
          </CharString>
          <CharString index="47">
            -51 441 490 rmoveto
            -375 hlineto
            -12 -70 rlineto
            214 hlineto
            -297 -420 rlineto
            377 hlineto
            13 70 rlineto
            -217 hlineto
            return
          </CharString>
          <CharString index="48">
            -53 -237 rmoveto
            58 9 60 27 17 94 105 597 rcurveline
            -91 hlineto
            -99 -563 -14 -79 -13 -15 -52 -6 rlinecurve
            -3 -69 rlineto
            return
          </CharString>
          <CharString index="49">
            rmoveto
            -15 -86 rlineto
            97 hlineto
            15 86 -29 9 47 87 -20 13 rlineto
            return
          </CharString>
          <CharString index="50">
            -64 callsubr
            endchar
          </CharString>
          <CharString index="51">
            rmoveto
            -100 hlineto
            -475 -785 rlineto
            100 hlineto
            return
          </CharString>
          <CharString index="52">
            hlineto
            42 237 rlineto
            return
          </CharString>
          <CharString index="53">
            -77 39 -31 53 hvcurveto
            45 177 rmoveto
            27 12 -22 -20 -35 -30 -35 -35 -19 -23 15 30 44 return
          </CharString>
          <CharString index="54">
            rmoveto
            -67 callsubr
            return
          </CharString>
          <CharString index="55">
            144 -87 93 -135 -177 -44 callsubr
            135 return
          </CharString>
          <CharString index="56">
            -266 104 hmoveto
            -84 callsubr
            endchar
          </CharString>
          <CharString index="57">
            hlineto
            36 205 rlineto
            return
          </CharString>
          <CharString index="58">
            -86 -490 rlineto
            return
          </CharString>
          <CharString index="59">
            hmoveto
            -67 callsubr
            return
          </CharString>
          <CharString index="60">
            rmoveto
            -242 hlineto
            -12 -70 rlineto
            134 hlineto
            -174 -308 rlineto
            77 hlineto
            endchar
          </CharString>
          <CharString index="61">
            rmoveto
            -71 -6 -85 -132 50 5 rlineto
            endchar
          </CharString>
          <CharString index="62">
            rmoveto
            105 51 76 58 36 -19 31 -23 15 hvcurveto
            30 27 26 36 43 vvcurveto
            39 return
          </CharString>
          <CharString index="63">
            -147 -141 -204 -144 87 -93 return
          </CharString>
          <CharString index="64">
            206 170 -29 callsubr
            -104 hlineto
            -170 -206 97 -22 callsubr
            return
          </CharString>
          <CharString index="65">
            rlineto
            -92 -63 callsubr
            return
          </CharString>
          <CharString index="66">
            rmoveto
            99 78 95 140 88 -42 52 return
          </CharString>
          <CharString index="67">
            rlineto
            -91 hlineto
            return
          </CharString>
          <CharString index="68">
            -38 -22 35 61 108 57 75 return
          </CharString>
          <CharString index="69">
            238 -53 callsubr
            return
          </CharString>
          <CharString index="70">
            -91 hlineto
            -55 -312 return
          </CharString>
          <CharString index="71">
            17 100 rlineto
            return
          </CharString>
          <CharString index="72">
            hmoveto
            99 560 -42 callsubr
            endchar
          </CharString>
          <CharString index="73">
            700 rlineto
            return
          </CharString>
          <CharString index="74">
            -63 callsubr
            92 hlineto
            44 248 rlineto
            return
          </CharString>
          <CharString index="75">
            hmoveto
            -27 callsubr
          </CharString>
          <CharString index="76">
            hlineto
            24 136 rlineto
            return
          </CharString>
          <CharString index="77">
            -24 callsubr
            -100 hlineto
            return
          </CharString>
          <CharString index="78">
            206 rlineto
            return
          </CharString>
          <CharString index="79">
            rmoveto
            13 76 rlineto
            -333 hlineto
            -13 -76 rlineto
            return
          </CharString>
          <CharString index="80">
            15 86 rlineto
            -91 -57 callsubr
          </CharString>
          <CharString index="81">
            17 29 49 44 29 32 6 vhcurveto
            endchar
          </CharString>
          <CharString index="82">
            hlineto
            15 88 rlineto
            return
          </CharString>
          <CharString index="83">
            700 rmoveto
            return
          </CharString>
          <CharString index="84">
            rmoveto
            16 94 rlineto
            -90 hlineto
            -17 -94 rlineto
            return
          </CharString>
          <CharString index="85">
            -206 rlineto
            return
          </CharString>
          <CharString index="86">
            rmoveto
            87 65 71 76 58 -38 30 return
          </CharString>
          <CharString index="87">
            -89 callsubr
            95 hlineto
            return
          </CharString>
          <CharString index="88">
            hlineto
            28 160 rlineto
            return
          </CharString>
        <CharString name=".notdef">
          -256 195 250 rmoveto
          19 110 -40 callsubr
          -19 -110 rlineto
          endchar
        </CharString>
        <CharString name="A">
          -101 callsubr
          endchar
        </CharString>
        <CharString name="A.sc">
          15 437 hmoveto
          -93 560 rlineto
          -90 hlineto
          -292 -560 rlineto
          97 hlineto
          72 141 rlineto
          187 hlineto
          23 -141 rlineto
          -39 229 rmoveto
          -124 hlineto
          95 189 rlineto
          endchar
        </CharString>
        <CharString name="AE">
          307 702 -48 callsubr
          -285 -55 callsubr
          213 -62 callsubr
          -213 hlineto
          36 204 rlineto
          276 hlineto
          16 87 rlineto
          -438 hlineto
          -431 -700 rlineto
          95 hlineto
          112 180 rlineto
          186 hlineto
          -31 -180 rlineto
          48 272 rmoveto
          -144 hlineto
          203 339 rlineto
          endchar
        </CharString>
        <CharString name="AE.sc">
          207 598 hmoveto
          16 88 rlineto
          -239 -19 callsubr
          179 -25 callsubr
          -179 hlineto
          24 135 rlineto
          232 hlineto
          16 89 rlineto
          -380 hlineto
          -363 -560 rlineto
          95 hlineto
          89 138 rlineto
          155 hlineto
          -25 -138 rlineto
          40 228 rmoveto
          -111 hlineto
          154 241 rlineto
          endchar
        </CharString>
        <CharString name="Aacute">
          -101 callsubr
          139 303 -92 callsubr
        </CharString>
        <CharString name="Acircumflex">
          -101 callsubr
          177 246 -96 callsubr
        </CharString>
        <CharString name="Adieresis">
          -101 callsubr
          155 243 -100 callsubr
        </CharString>
        <CharString name="Agrave">
          -101 callsubr
          127 239 -91 callsubr
        </CharString>
        <CharString name="Aring">
          -101 callsubr
          40 219 -87 callsubr
        </CharString>
        <CharString name="Atilde">
          -101 callsubr
          105 242 -103 callsubr
        </CharString>
        <CharString name="B">
          84 253 hmoveto
          112 148 37 194 76 -23 36 -58 30 hvcurveto
          48 48 35 47 87 vvcurveto
          123 -71 22 -141 vhcurveto
          -152 -89 callsubr
          291 615 rmoveto
          78 21 -15 -66 -116 -66 -9 -49 hvcurveto
          -108 hlineto
          36 -29 callsubr
          78 -292 rmoveto
          81 23 -35 -67 -119 -74 -16 -105 hvcurveto
          -96 -55 callsubr
          endchar
        </CharString>
        <CharString name="B.sc">
          26 224 hmoveto
          102 122 38 154 51 -23 35 -50 21 hvcurveto
          40 33 30 37 79 vvcurveto
          95 -74 17 -111 vhcurveto
          -140 -63 callsubr
          260 480 rmoveto
          43 30 -9 -47 -79 -49 -13 -38 hvcurveto
          -95 hlineto
          26 148 rlineto
          66 -224 rmoveto
          50 37 -16 -54 -84 -49 -21 -82 hvcurveto
          -92 hlineto
          30 175 rlineto
          endchar
        </CharString>
        <CharString name="C">
          -81 callsubr
          endchar
        </CharString>
        <CharString name="C.sc">
          17 257 -11 rmoveto
          56 59 13 19 43 hvcurveto
          5 88 rlineto
          -17 -47 -45 -15 -55 hhcurveto
          -93 -44 67 91 133 76 115 132 56 39 -15 -17 42 hvcurveto
          25 87 rlineto
          20 -35 -55 13 -57 hhcurveto
          -177 -148 -141 -204 -144 88 -93 135 hvcurveto
          endchar
        </CharString>
        <CharString name="Ccedilla">
          -81 callsubr
          -14 -40 -46 callsubr
        </CharString>
        <CharString name="D">
          191 262 hmoveto
          211 171 167 244 189 -102 100 -157 hvcurveto
          -234 -89 callsubr
          342 614 rmoveto
          114 55 -78 -130 -171 -95 -149 -167 hvcurveto
          -139 hlineto
          93 528 rlineto
          endchar
        </CharString>
        <CharString name="D.sc">
          105 223 hmoveto
          179 144 129 204 142 -89 85 -135 hvcurveto
          -202 -63 callsubr
          285 472 rmoveto
          93 45 -58 -90 -135 -72 -101 -133 hvcurveto
          -110 hlineto
          68 384 rlineto
          endchar
        </CharString>
        <CharString name="E">
          -98 callsubr
          endchar
        </CharString>
        <CharString name="E.sc">
          -20 371 hmoveto
          16 88 rlineto
          -256 -19 callsubr
          194 hlineto
          16 88 rlineto
          -194 -31 callsubr
          248 -25 callsubr
          -342 -63 callsubr
          endchar
        </CharString>
        <CharString name="Eacute">
          -98 callsubr
          415 870 -92 callsubr
        </CharString>
        <CharString name="Ecircumflex">
          -98 callsubr
          453 813 -96 callsubr
        </CharString>
        <CharString name="Edieresis">
          -98 callsubr
          431 810 -100 callsubr
        </CharString>
        <CharString name="Egrave">
          -98 callsubr
          403 806 -91 callsubr
        </CharString>
        <CharString name="Eth">
          193 266 hmoveto
          210 170 163 258 175 -101 104 -156 hvcurveto
          -232 hlineto
          -57 -323 rlineto
          -86 hlineto
          -11 -64 rlineto
          86 hlineto
          -55 -313 rlineto
          340 614 rmoveto
          114 55 -80 -120 -183 -93 -144 -169 hvcurveto
          -140 hlineto
          40 226 rlineto
          116 hlineto
          12 64 rlineto
          -117 -55 callsubr
          endchar
        </CharString>
        <CharString name="Euro">
          163 378 17 rmoveto
          57 60 11 23 49 hvcurveto
          6 98 rlineto
          -22 -51 -47 -16 -57 hhcurveto
          -70 -43 32 72 -21 hvcurveto
          174 hlineto
          35 69 rlineto
          -218 hlineto
          1 26 3 19 4 21 4 24 rcurveline
          217 hlineto
          34 64 rlineto
          -230 hlineto
          96 42 63 55 89 hhcurveto
          57 42 -16 -22 43 hvcurveto
          29 98 rlineto
          23 -42 -56 11 -56 hhcurveto
          -137 -123 -91 -154 -61 hvcurveto
          -67 hlineto
          -33 -64 rlineto
          80 hlineto
          -4 -24 -3 -19 -3 -19 -2 -28 rlinecurve
          -88 hlineto
          -35 -69 rlineto
          128 hlineto
          -126 23 86 -72 121 hhcurveto
          endchar
        </CharString>
        <CharString name="F">
          6 522 614 -53 callsubr
          -386 -20 callsubr
          57 323 rlineto
          224 -62 callsubr
          -224 -50 callsubr
          endchar
        </CharString>
        <CharString name="F.sc">
          -49 437 472 rmoveto
          15 88 rlineto
          -332 -33 callsubr
          186 -25 callsubr
          -185 -31 callsubr
          endchar
        </CharString>
        <CharString name="G">
          140 300 -14 rmoveto
          71 99 24 29 54 hvcurveto
          55 312 rlineto
          -185 -64 callsubr
          90 hlineto
          -31 -174 rlineto
          -15 -35 -41 -4 -27 hhcurveto
          -126 -58 87 131 166 92 172 179 57 64 -17 -20 48 hvcurveto
          24 83 rlineto
          23 -43 -75 17 -65 hhcurveto
          -211 -174 -182 -247 -188 101 -111 152 hvcurveto
          endchar
        </CharString>
        <CharString name="G.sc">
          63 254 -11 rmoveto
          62 87 19 23 44 hvcurveto
          44 250 rlineto
          -158 hlineto
          -14 -79 rlineto
          66 hlineto
          -21 -114 rlineto
          -8 -28 -29 -3 -23 hhcurveto
          -100 -47 66 94 129 70 117 142 49 56 -14 -17 40 hvcurveto
          25 87 rlineto
          19 -36 -68 13 -52 hhcurveto
          -182 -146 -141 -203 -145 88 -93 131 hvcurveto
          endchar
        </CharString>
        <CharString name="H">
          207 555 hmoveto
          124 -34 callsubr
          -95 hlineto
          -51 -289 rlineto
          -338 hlineto
          51 289 rlineto
          -95 -20 callsubr
          57 321 rlineto
          337 hlineto
          -57 -321 rlineto
          endchar
        </CharString>
        <CharString name="H.sc">
          119 474 hmoveto
          99 560 rlineto
          -92 hlineto
          -40 -223 rlineto
          -268 hlineto
          39 223 rlineto
          -92 -33 callsubr
          268 hlineto
          -43 -248 rlineto
          endchar
        </CharString>
        <CharString name="I">
          -79 callsubr
          endchar
        </CharString>
        <CharString name="I.sc">
          -242 113 -35 callsubr
        </CharString>
        <CharString name="Iacute">
          -79 callsubr
          286 870 -92 callsubr
        </CharString>
        <CharString name="Icircumflex">
          -79 callsubr
          324 813 -96 callsubr
        </CharString>
        <CharString name="Idieresis">
          -79 callsubr
          302 810 -100 callsubr
        </CharString>
        <CharString name="Igrave">
          -79 callsubr
          275 806 -91 callsubr
        </CharString>
        <CharString name="J">
          -225 -55 -172 rmoveto
          99 58 50 90 16 hvcurveto
          129 732 rlineto
          -95 hlineto
          -124 -703 rlineto
          -78 -14 -20 -35 -59 hhcurveto
          -9 hlineto
          -2 -56 rlineto
          endchar
        </CharString>
        <CharString name="J.sc">
          -243 -37 -138 rmoveto
          80 53 39 77 13 hvcurveto
          103 582 rlineto
          -92 hlineto
          -99 -559 rlineto
          -50 -9 -15 -23 -38 hhcurveto
          -16 hlineto
          -4 -66 rlineto
          endchar
        </CharString>
        <CharString name="K">
          66 486 hmoveto
          -164 371 287 329 rlineto
          -103 hlineto
          -287 -329 164 -371 rlineto
          -260 -75 callsubr
          endchar
        </CharString>
        <CharString name="K.sc">
          19 430 hmoveto
          -139 296 238 264 rlineto
          -103 hlineto
          -238 -264 140 -296 rlineto
          -215 -35 callsubr
        </CharString>
        <CharString name="L">
          -14 402 hmoveto
          16 86 rlineto
          -280 hlineto
          108 614 rlineto
          -95 -89 callsubr
          endchar
        </CharString>
        <CharString name="L.sc">
          -75 343 hmoveto
          16 88 rlineto
          -230 hlineto
          83 472 -42 callsubr
          endchar
        </CharString>
        <CharString name="M">
          271 650 hmoveto
          38 -34 callsubr
          -86 hlineto
          -216 -347 -94 347 rlineto
          -86 hlineto
          -209 -700 rlineto
          100 hlineto
          148 516 109 -350 230 350 -34 -516 rlineto
          endchar
        </CharString>
        <CharString name="M.sc">
          185 566 hmoveto
          24 560 rlineto
          -76 hlineto
          -180 -263 -89 263 rlineto
          -77 hlineto
          -173 -560 rlineto
          97 hlineto
          116 392 95 -269 188 269 -22 -392 rlineto
          endchar
        </CharString>
        <CharString name="N">
          -66 callsubr
          endchar
        </CharString>
        <CharString name="N.sc">
          92 447 hmoveto
          99 560 rlineto
          -93 hlineto
          -67 -382 -174 382 -42 callsubr
          92 hlineto
          72 405 185 -405 rlineto
          endchar
        </CharString>
        <CharString name="Ntilde">
          -66 callsubr
          38 809 -103 callsubr
        </CharString>
        <CharString name="O">
          -106 callsubr
          endchar
        </CharString>
        <CharString name="O.sc">
          139 256 -11 rmoveto
          177 147 141 204 -52 callsubr
          hvcurveto
          87 494 rmoveto
          91 43 -67 -91 -132 -74 -116 -132 -92 -43 67 91 132 75 116 132 hvcurveto
          endchar
        </CharString>
        <CharString name="OE">
          494 888 -48 callsubr
          -283 -55 callsubr
          211 -62 callsubr
          -211 -50 callsubr
          275 hlineto
          15 85 rlineto
          -368 hlineto
          -15 -82 rlineto
          72 -61 -60 25 -73 hhcurveto
          -206 -173 -179 -258 -177 98 -114 152 73 69 25 72 87 hvcurveto
          -14 -83 rlineto
          -102 628 rmoveto
          111 52 -90 -121 -179 -94 -166 -167 -112 -51 90 121 179 94 166 167 hvcurveto
          endchar
        </CharString>
        <CharString name="OE.sc">
          368 760 hmoveto
          15 88 rlineto
          -238 -19 callsubr
          178 hlineto
          16 88 rlineto
          -179 -31 callsubr
          232 -25 callsubr
          -325 hlineto
          -9 -52 rlineto
          43 -45 -52 20 -63 hhcurveto
          -176 -44 callsubr
          133 63 60 20 43 59 hvcurveto
          -9 -52 rlineto
          -86 483 rmoveto
          91 44 -66 -91 -134 -74 -115 -132 -92 -43 66 91 134 74 115 132 hvcurveto
          endchar
        </CharString>
        <CharString name="Oacute">
          -106 callsubr
          131 242 -92 callsubr
        </CharString>
        <CharString name="Ocircumflex">
          -106 callsubr
          169 185 -96 callsubr
        </CharString>
        <CharString name="Odieresis">
          -106 callsubr
          147 182 -100 callsubr
        </CharString>
        <CharString name="Ograve">
          -106 callsubr
          119 178 -91 callsubr
        </CharString>
        <CharString name="Oslash">
          230 301 -12 rmoveto
          209 174 177 255 79 -20 75 -36 53 hvcurveto
          73 89 rlineto
          -95 hlineto
          -34 -44 rlineto
          30 -45 -46 12 -52 hhcurveto
          -208 -174 -179 -256 -76 18 -74 34 -54 hvcurveto
          -87 -105 rlineto
          96 hlineto
          46 61 rlineto
          -31 46 48 -12 53 hhcurveto
          257 560 rmoveto
          14 -31 6 -54 -39 vvcurveto
          -184 -95 -164 -166 -33 -29 7 22 -34 vhcurveto
          192 520 rmoveto
          33 26 -7 -21 34 hvcurveto
          -336 -441 rlineto
          -11 44 -5 49 38 vvcurveto
          174 94 164 165 vhcurveto
          endchar
        </CharString>
        <CharString name="Otilde">
          -106 callsubr
          97 181 -103 callsubr
        </CharString>
        <CharString name="P">
          57 298 245 rmoveto
          99 152 75 207 149 -78 24 -125 hvcurveto
          -195 -89 callsubr
          98 hlineto
          43 245 rlineto
          161 370 rmoveto
          94 25 -30 -74 -91 -37 -90 -115 hvcurveto
          -113 hlineto
          51 285 rlineto
          endchar
        </CharString>
        <CharString name="P.sc">
          2 250 188 rmoveto
          86 137 49 191 112 -75 20 -120 hvcurveto
          -158 -63 callsubr
          94 hlineto
          33 188 rlineto
          133 293 rmoveto
          70 26 -22 -49 -84 -27 -52 -98 hvcurveto
          -89 hlineto
          37 207 rlineto
          endchar
        </CharString>
        <CharString name="Q">
          228 616 62 rmoveto
          -46 49 rlineto
          79 108 34 94 107 vvcurveto
          180 -96 114 -162 -205 -174 -184 -247 -187 100 -110 155 69 67 22 49 66 vhcurveto
          50 -54 rlineto
          -142 625 rmoveto
          118 55 -87 -137 -113 -37 -61 -38 -58 hvcurveto
          -75 85 -63 -61 75 -84 rlineto
          -33 -42 -51 -7 -33 hhcurveto
          -120 -49 90 124 175 97 167 163 hvcurveto
          endchar
        </CharString>
        <CharString name="Q.sc">
          139 532 58 rmoveto
          -41 41 rlineto
          57 71 32 75 89 vvcurveto
          -52 callsubr
          59 58 17 34 50 vhcurveto
          45 -44 rlineto
          -125 487 rmoveto
          92 44 -66 -92 -87 -25 -40 -26 -39 hvcurveto
          -60 65 -64 -64 58 -60 rlineto
          -17 -28 -32 -6 -31 hhcurveto
          -91 -44 66 91 134 75 115 132 hvcurveto
          endchar
        </CharString>
        <CharString name="R">
          84 491 hmoveto
          -93 298 rlineto
          85 43 68 86 114 vvcurveto
          120 -75 39 -112 vhcurveto
          -213 -89 callsubr
          98 hlineto
          48 273 rlineto
          128 hlineto
          88 -273 rlineto
          -48 623 rmoveto
          79 29 -37 -70 -102 -61 -49 -79 hvcurveto
          -120 hlineto
          46 258 rlineto
          endchar
        </CharString>
        <CharString name="R.sc">
          26 430 hmoveto
          -82 236 rlineto
          71 38 55 58 99 vvcurveto
          97 -68 32 -94 vhcurveto
          -192 -63 callsubr
          94 hlineto
          37 212 rlineto
          104 hlineto
          77 -212 rlineto
          -52 483 rmoveto
          70 24 -26 -43 -66 -24 -48 -100 hvcurveto
          -83 hlineto
          32 183 rlineto
          endchar
        </CharString>
        <CharString name="S">
          -88 callsubr
          endchar
        </CharString>
        <CharString name="S.sc">
          -3 177 -11 rmoveto
          184 57 98 89 101 -87 29 -74 25 hvcurveto
          -52 18 -45 18 41 vvcurveto
          58 68 18 50 52 46 -20 -30 51 vhcurveto
          26 96 rlineto
          18 -25 -66 23 -73 hhcurveto
          -165 -63 -112 -75 -81 72 -27 68 -25 hvcurveto
          60 -22 52 -20 -51 vvcurveto
          -60 -51 -21 -67 -80 -54 29 29 -26 vhcurveto
          -30 -107 rlineto
          -20 28 63 -19 81 hhcurveto
          endchar
        </CharString>
        <CharString name="Scaron">
          -88 callsubr
          307 923 -77 callsubr
        </CharString>
        <CharString name="T">
          42 546 614 -53 callsubr
          -459 -64 callsubr
          182 hlineto
          -108 -614 rlineto
          95 hlineto
          108 614 rlineto
          endchar
        </CharString>
        <CharString name="T.sc">
          -23 462 472 rmoveto
          15 88 rlineto
          -401 hlineto
          -16 -88 rlineto
          154 hlineto
          -83 -472 rlineto
          93 hlineto
          83 472 rlineto
          endchar
        </CharString>
        <CharString name="Thorn">
          44 217 206 rmoveto
          225 82 63 160 109 -83 22 -161 hvcurveto
          -55 hlineto
          24 140 rlineto
          -98 -89 callsubr
          98 hlineto
          36 -29 callsubr
          139 297 rmoveto
          87 39 -25 -65 -93 -44 -59 -125 hvcurveto
          -86 hlineto
          43 242 rlineto
          endchar
        </CharString>
        <CharString name="U">
          -102 callsubr
          endchar
        </CharString>
        <CharString name="U.sc">
          102 238 -11 rmoveto
          153 88 98 152 27 hvcurveto
          57 321 rlineto
          -93 hlineto
          -50 -286 rlineto
          -106 -19 -37 -91 -110 hhcurveto
          -81 -25 49 68 25 3 27 5 28 hvcurveto
          50 286 -40 callsubr
          -57 -321 rlineto
          -4 -25 -3 -23 -22 vvcurveto
          -112 60 -68 127 vhcurveto
          endchar
        </CharString>
        <CharString name="Uacute">
          -102 callsubr
          240 884 -92 callsubr
        </CharString>
        <CharString name="Ucircumflex">
          -102 callsubr
          278 827 -96 callsubr
        </CharString>
        <CharString name="Udieresis">
          -102 callsubr
          256 824 -100 callsubr
        </CharString>
        <CharString name="Ugrave">
          -102 callsubr
          228 820 -91 callsubr
        </CharString>
        <CharString name="V">
          114 653 -30 callsubr
          -292 -585 -86 585 rlineto
          -100 hlineto
          113 -700 rlineto
          106 hlineto
          endchar
        </CharString>
        <CharString name="V.sc">
          42 555 560 rmoveto
          -97 hlineto
          -231 -442 -78 442 rlineto
          -97 hlineto
          100 -560 rlineto
          109 hlineto
          endchar
        </CharString>
        <CharString name="W">
          408 945 -24 callsubr
          -99 hlineto
          -238 -581 -52 567 rlineto
          -79 hlineto
          -255 -568 -29 582 rlineto
          -100 hlineto
          53 -700 rlineto
          99 hlineto
          251 574 45 -574 rlineto
          96 hlineto
          endchar
        </CharString>
        <CharString name="W.sc">
          291 802 560 rmoveto
          -97 hlineto
          -181 -418 -56 414 rlineto
          -68 hlineto
          -198 -421 -36 425 rlineto
          -97 hlineto
          54 -560 rlineto
          90 hlineto
          195 404 50 -404 rlineto
          86 hlineto
          endchar
        </CharString>
        <CharString name="X">
          81 500 hmoveto
          -159 356 278 344 rlineto
          -103 hlineto
          -210 -278 -108 278 rlineto
          -110 hlineto
          144 -343 -271 -357 rlineto
          104 hlineto
          210 287 122 -287 rlineto
          endchar
        </CharString>
        <CharString name="X.sc">
          30 444 hmoveto
          -139 290 229 270 rlineto
          -104 hlineto
          -160 -205 -93 205 rlineto
          -107 hlineto
          133 -281 -238 -279 rlineto
          105 hlineto
          169 214 99 -214 rlineto
          endchar
        </CharString>
        <CharString name="Y">
          -80 callsubr
          endchar
        </CharString>
        <CharString name="Y.sc">
          3 519 560 rmoveto
          -98 hlineto
          -175 -225 -95 225 rlineto
          -98 hlineto
          132 -308 -45 -252 rlineto
          94 hlineto
          44 252 rlineto
          endchar
        </CharString>
        <CharString name="Yacute">
          -80 callsubr
          139 547 -92 callsubr
        </CharString>
        <CharString name="Ydieresis">
          -80 callsubr
          156 487 -100 callsubr
        </CharString>
        <CharString name="Z">
          -61 callsubr
          endchar
        </CharString>
        <CharString name="Z.sc">
          -30 478 560 rmoveto
          -377 hlineto
          -16 -88 rlineto
          225 hlineto
          -343 -472 rlineto
          378 -25 callsubr
          -225 hlineto
          endchar
        </CharString>
        <CharString name="Zcaron">
          -61 callsubr
          367 823 -77 callsubr
        </CharString>
        <CharString name="a">
          -107 callsubr
          endchar
        </CharString>
        <CharString name="aacute">
          -107 callsubr
          186 240 -92 callsubr
        </CharString>
        <CharString name="acircumflex">
          -107 callsubr
          224 183 -96 callsubr
        </CharString>
        <CharString name="acute">
          -209 337 660 -92 callsubr
        </CharString>
        <CharString name="adieresis">
          -107 callsubr
          202 180 -100 callsubr
        </CharString>
        <CharString name="ae">
          247 684 245 rmoveto
          10 30 9 29 39 vvcurveto
          101 -55 56 -88 -72 -76 -31 -89 -38 vhcurveto
          101 -69 19 -50 -46 -53 -13 -26 -56 vhcurveto
          -4 -70 rlineto
          19 45 35 10 39 hhcurveto
          65 14 -33 -80 hvcurveto
          -113 -7 -189 -34 -173 vvcurveto
          -65 39 -42 80 83 73 39 78 47 vhcurveto
          -81 18 56 -32 87 hhcurveto
          61 49 18 22 45 hvcurveto
          69 vlineto
          -23 -49 -41 -14 -43 hhcurveto
          -67 -47 45 91 15 2 15 2 17 hvcurveto
          155 175 rmoveto
          50 26 -22 -50 1 hvcurveto
          -12 -1 -14 -3 -15 vhcurveto
          -211 hlineto
          80 30 49 33 59 hhcurveto
          -252 -175 rmoveto
          -2 -18 -3 -16 -2 -13 rrcurveto
          -101 -18 -69 -35 -52 hhcurveto
          -32 -24 14 36 99 120 34 82 hvcurveto
          endchar
        </CharString>
        <CharString name="agrave">
          -107 callsubr
          174 176 -91 callsubr
        </CharString>
        <CharString name="ampersand">
          79 498 hmoveto
          -65 100 59 84 27 108 12 59 rlinecurve
          -84 hlineto
          -9 -42 -25 -112 -26 -36 -123 195 rcurveline
          87 55 96 84 103 vvcurveto
          62 -35 43 -80 -104 -104 -74 -116 -41 13 -50 27 -56 vhcurveto
          -100 -75 -52 -71 -89 vvcurveto
          -89 52 -65 131 67 52 17 52 59 vhcurveto
          28 -46 rlineto
          -90 634 rmoveto
          35 20 -19 -41 -69 -55 -34 -76 -65 hvcurveto
          -20 41 -6 39 27 vvcurveto
          79 51 42 51 vhcurveto
          27 -529 rmoveto
          -36 -33 -39 -24 -56 hhcurveto
          -76 -30 44 56 67 42 63 51 38 hvcurveto
          endchar
        </CharString>
        <CharString name="aring">
          -107 callsubr
          87 156 -87 callsubr
        </CharString>
        <CharString name="asciicircum">
          -22 492 437 rmoveto
          18 106 -147 216 -223 -216 -19 -106 223 216 rlineto
          endchar
        </CharString>
        <CharString name="asciitilde">
          -47 257 179 -103 callsubr
        </CharString>
        <CharString name="asterisk">
          -79 309 427 rmoveto
          46 32 -84 115 154 63 -20 42 -145 -86 47 156 rlineto
          -55 hlineto
          -9 -156 -114 86 -35 -41 131 -65 -122 -117 33 -32 110 136 rlineto
          endchar
        </CharString>
        <CharString name="at">
          186 515 379 rmoveto
          -49 -125 -44 -67 -59 vvcurveto
          -30 13 -4 19 116 54 150 109 122 -66 78 -120 -204 -209 -197 -242 -126 68 -75 116 125 128 79 114 76 vhcurveto
          -33 -34 -61 -31 -33 hhcurveto
          -31 -9 32 28 26 9 18 2 10 hvcurveto
          -75 -52 -78 -41 -53 hhcurveto
          -48 -17 40 44 143 159 165 123 50 32 -27 -26 18 hvcurveto
          -103 -8 rmoveto
          -72 -131 -102 -117 -26 9 -20 22 60 113 136 107 36 hvcurveto
          21 -4 -23 1 -10 hhcurveto
          endchar
        </CharString>
        <CharString name="atilde">
          -107 callsubr
          148 179 -103 callsubr
        </CharString>
        <CharString name="b">
          39 231 -10 rmoveto
          131 120 140 164 111 -55 95 -112 -40 -53 -12 -51 -44 hvcurveto
          55 313 -40 callsubr
          -132 -750 rlineto
          82 hlineto
          18 62 rlineto
          -46 24 41 -26 56 hhcurveto
          59 430 rmoveto
          67 31 -58 -77 -113 -67 -102 -91 -55 -41 37 97 134 77 82 79 hvcurveto
          endchar
        </CharString>
        <CharString name="backslash">
          7 400 -85 rmoveto
          -198 785 rlineto
          -96 hlineto
          198 -785 rlineto
          endchar
        </CharString>
        <CharString name="bar">
          -256 65 -209 rmoveto
          169 959 rlineto
          -83 hlineto
          -169 -959 rlineto
          endchar
        </CharString>
        <CharString name="braceleft">
          -201 29 -15 rmoveto
          -74 48 -42 123 -4 vhcurveto
          12 69 rlineto
          -79 3 -24 23 65 97 34 42 58 vvcurveto
          28 -11 26 -38 31 vhcurveto
          66 42 12 32 8 43 5 28 2 31 5 27 23 129 11 38 117 4 13 69 rcurveline
          -149 -5 -56 -55 -16 -90 -7 -40 -3 -57 -8 -47 -13 -73 -27 -42 -54 -34 rrcurveto
          33 -26 14 -36 -45 -72 -41 -87 -56 vvcurveto
          endchar
        </CharString>
        <CharString name="braceright">
          -204 147 14 rmoveto
          7 40 4 57 8 48 12 68 23 45 58 35 rrcurveto
          -31 25 -15 35 48 72 41 86 56 vvcurveto
          72 -45 45 -126 4 vhcurveto
          -12 -69 rlineto
          79 -3 24 -23 -65 -98 -34 -54 -40 vvcurveto
          -30 11 -30 38 -31 vhcurveto
          -66 -41 -12 -27 -7 -40 -5 -29 -3 -31 -6 -34 -23 -129 -10 -38 -118 -4 -12 -69 rcurveline
          143 5 61 51 16 93 rrcurveto
          endchar
        </CharString>
        <CharString name="bracketleft">
          -175 227 -135 rmoveto
          12 68 rlineto
          -148 hlineto
          132 749 rlineto
          148 hlineto
          12 68 rlineto
          -231 hlineto
          -156 -885 rlineto
          endchar
        </CharString>
        <CharString name="bracketright">
          -171 163 -135 rmoveto
          156 885 rlineto
          -231 hlineto
          -15 -84 rlineto
          148 hlineto
          -126 -717 rlineto
          -148 hlineto
          -15 -84 rlineto
          endchar
        </CharString>
        <CharString name="brokenbar">
          -256 155 308 rmoveto
          77 442 rlineto
          -79 hlineto
          -78 -442 rlineto
          -12 -518 rmoveto
          66 373 rlineto
          -79 hlineto
          -66 -373 rlineto
          endchar
        </CharString>
        <CharString name="bullet">
          -194 121 169 rmoveto
          60 59 58 68 51 -33 41 -48 -60 -59 -58 -68 -51 33 -41 48 hvcurveto
          endchar
        </CharString>
        <CharString name="c">
          -78 callsubr
          endchar
        </CharString>
        <CharString name="caron">
          -79 457 699 -77 callsubr
        </CharString>
        <CharString name="ccedilla">
          -78 callsubr
          34 -44 -46 callsubr
        </CharString>
        <CharString name="cedilla">
          -209 247 -54 -46 callsubr
        </CharString>
        <CharString name="cent">
          -41 236 87 rmoveto
          64 4 32 13 28 15 5 78 rcurveline
          -21 -40 -38 -11 -42 hhcurveto
          -68 -34 62 78 115 67 111 99 43 34 -12 -21 32 hvcurveto
          22 78 -23 16 -28 12 -63 4 rlinecurve
          41 140 rlineto
          -69 hlineto
          -8 -140 rlineto
          -160 -22 -89 -143 -147 vvcurveto
          -103 49 -89 106 -17 vhcurveto
          -36 -118 rlineto
          70 hlineto
          endchar
        </CharString>
        <CharString name="circumflex">
          -79 440 603 -96 callsubr
        </CharString>
        <CharString name="colon">
          -273 160 354 -53 callsubr
          -90 hlineto
          -16 -86 rlineto
          29 -354 rmoveto
          -27 callsubr
        </CharString>
        <CharString name="comma">
          -51 callsubr
        </CharString>
        <CharString name="copyright">
          -65 callsubr
          611 rmoveto
          125 57 -94 -125 -182 -100 -166 -182 -126 -57 94 125 183 100 165 183 hvcurveto
          -72 -451 rmoveto
          29 34 7 13 25 hvcurveto
          4 59 rlineto
          -12 -28 -26 -8 -27 hhcurveto
          -42 -19 35 46 70 36 63 62 28 23 -8 -11 23 hvcurveto
          18 60 rlineto
          11 -21 -31 8 -29 hhcurveto
          -97 -80 -82 -118 -81 46 -52 72 hvcurveto
          endchar
        </CharString>
        <CharString name="currency">
          102 477 53 rmoveto
          -52 101 rlineto
          75 79 33 75 85 vvcurveto
          50 -12 54 -27 43 vhcurveto
          87 103 -30 24 -89 -104 rlineto
          28 -37 -36 11 -44 hhcurveto
          -43 -40 -11 -27 -47 hvcurveto
          -51 103 -39 -24 51 -102 rlineto
          -77 -79 -31 -77 -83 vvcurveto
          -50 13 -54 26 -43 vhcurveto
          -86 -102 30 -24 88 103 rlineto
          -28 37 36 -10 44 hhcurveto
          44 39 10 28 47 hvcurveto
          52 -103 rlineto
          -104 511 rmoveto
          72 35 -64 -82 -123 -68 -115 -106 -72 -35 64 82 123 68 115 106 hvcurveto
          endchar
        </CharString>
        <CharString name="d">
          39 407 hmoveto
          132 750 rlineto
          -37 callsubr
          -86 callsubr
          -152 -118 65 -89 98 52 51 25 47 41 hvcurveto
          -4 -62 rlineto
          -55 420 -95 callsubr
          endchar
        </CharString>
        <CharString name="dagger">
          -80 373 373 rmoveto
          15 85 -139 -31 61 180 rlineto
          -113 -180 hlineto
          -128 31 -15 -85 140 30 -60 -151 -17 -252 rlineto
          61 hlineto
          72 252 -7 151 rlineto
          endchar
        </CharString>
        <CharString name="daggerdbl">
          -56 336 88 rmoveto
          14 84 -141 -30 58 132 -11 133 131 -30 14 84 -138 -30 60 176 rlineto
          -112 -176 hlineto
          -128 30 -15 -84 141 30 -58 -133 11 -132 -130 30 -15 -84 138 30 -60 -177 rlineto
          113 177 hlineto
          endchar
        </CharString>
        <CharString name="degree">
          -170 187 482 rmoveto
          87 59 75 87 62 -33 49 -65 -86 -60 -77 -86 -62 34 -48 64 hvcurveto
          43 247 rmoveto
          39 17 -42 -43 -63 -36 -73 -59 -37 -18 40 45 63 39 73 55 hvcurveto
          endchar
        </CharString>
        <CharString name="dieresis">
          -101 407 600 -100 callsubr
        </CharString>
        <CharString name="divide">
          69 341 440 -23 callsubr
          222 -195 rmoveto
          13 74 rlineto
          -414 hlineto
          -13 -74 rlineto
          209 -225 -23 callsubr
          endchar
        </CharString>
        <CharString name="dollar">
          -2 230 82 rmoveto
          189 17 14 116 44 164 -255 -36 93 vvcurveto
          51 63 15 55 44 54 -22 -26 45 vhcurveto
          26 96 -23 16 -54 17 -61 4 rlinecurve
          35 117 rlineto
          -86 hlineto
          -6 -117 rlineto
          -148 -15 -48 -94 -65 -140 246 27 -101 vvcurveto
          -56 -43 -17 -66 -77 -53 27 31 -28 vhcurveto
          -31 -109 25 -17 54 -17 72 -4 rlinecurve
          -35 -113 rlineto
          86 hlineto
          endchar
        </CharString>
        <CharString name="dotlessi">
          -68 callsubr
          endchar
        </CharString>
        <CharString name="dotlessj">
          -59 callsubr
          endchar
        </CharString>
        <CharString name="e">
          -105 callsubr
          endchar
        </CharString>
        <CharString name="eacute">
          -105 callsubr
          108 240 -92 callsubr
        </CharString>
        <CharString name="ecircumflex">
          -105 callsubr
          145 183 -96 callsubr
        </CharString>
        <CharString name="edieresis">
          -105 callsubr
          123 180 -100 callsubr
        </CharString>
        <CharString name="egrave">
          -105 callsubr
          96 176 -91 callsubr
        </CharString>
        <CharString name="eight">
          86 225 -14 rmoveto
          174 92 139 111 68 -34 52 -68 31 hvcurveto
          100 76 29 34 73 vvcurveto
          77 -32 66 -127 -168 -52 -117 -86 -45 14 -46 38 -43 vhcurveto
          -131 -75 -19 -88 -54 vvcurveto
          -86 47 -87 137 vhcurveto
          116 642 rmoveto
          54 28 -24 -45 -50 -36 -60 -87 -28 hvcurveto
          -46 21 -28 33 48 vvcurveto
          58 40 47 75 vhcurveto
          -48 -290 rmoveto
          57 -18 41 -41 -63 vvcurveto
          -81 -67 -63 -87 -60 -37 30 66 95 75 59 78 16 vhcurveto
          endchar
        </CharString>
        <CharString name="eightinferior">
          -133 115 -8 -45 callsubr
          -25 33 -68 -98 -31 -76 callsubr
          -31 -17 -26 callsubr
        </CharString>
        <CharString name="eightsuperior">
          -160 158 312 -45 callsubr
          -24 33 -69 -97 -32 -76 callsubr
          -30 -18 -26 callsubr
        </CharString>
        <CharString name="ellipsis">
          152 98 -48 callsubr
          -91 -64 callsubr
          303 -48 callsubr
          -90 hlineto
          -16 -86 rlineto
          304 -32 callsubr
        </CharString>
        <CharString name="emdash">
          68 480 -38 callsubr
          -432 -57 callsubr
        </CharString>
        <CharString name="endash">
          -15 397 -38 callsubr
          -349 -57 callsubr
        </CharString>
        <CharString name="equal">
          -12 405 318 -28 callsubr
          305 -158 -28 callsubr
          endchar
        </CharString>
        <CharString name="eth">
          6 177 -12 rmoveto
          106 160 70 284 103 -25 110 -46 59 hvcurveto
          33 34 21 22 23 28 -45 12 rcurveline
          -17 -21 -18 -17 -28 -26 rrcurveto
          39 -41 -45 16 -38 hhcurveto
          -39 -42 rlineto
          37 34 -19 -35 28 hvcurveto
          -51 -35 -39 -12 -32 -5 20 -55 rcurveline
          43 6 44 20 49 36 rrcurveto
          31 -36 8 -95 -58 vvcurveto
          24 -17 -31 31 -58 hhcurveto
          -149 -85 -152 -108 -104 67 -74 100 hvcurveto
          65 355 rmoveto
          55 29 -43 -62 -94 -63 -73 -69 -58 -29 49 61 82 55 80 80 hvcurveto
          endchar
        </CharString>
        <CharString name="exclam">
          -242 256 750 rmoveto
          -112 hlineto
          -73 -550 rlineto
          64 hlineto
          -24 -200 -53 callsubr
          -87 -57 callsubr
        </CharString>
        <CharString name="exclamdown">
          -245 -34 -250 rmoveto
          112 hlineto
          72 550 rlineto
          -63 hlineto
          23 200 rmoveto
          -15 -86 rlineto
          87 hlineto
          16 86 rlineto
          endchar
        </CharString>
        <CharString name="f">
          -178 311 420 rmoveto
          13 70 rlineto
          -113 hlineto
          11 60 rlineto
          100 18 8 20 41 hhcurveto
          13 18 -2 -7 18 hvcurveto
          25 76 rlineto
          3 -8 -29 10 -39 hhcurveto
          -94 -37 -57 -79 -14 hvcurveto
          -22 -124 rlineto
          -62 hlineto
          -22 -70 rlineto
          72 hlineto
          -74 -420 rlineto
          91 hlineto
          74 420 rlineto
          endchar
        </CharString>
        <CharString name="five">
          27 155 -14 rmoveto
          140 150 117 170 118 -72 46 -162 3 hvcurveto
          48 174 rlineto
          204 hlineto
          24 86 rlineto
          -287 hlineto
          -99 -345 rlineto
          83 hlineto
          118 41 -32 -70 -101 -86 -80 -88 -41 -49 17 25 -32 hvcurveto
          -38 -89 rlineto
          -16 8 76 -23 62 hhcurveto
          endchar
        </CharString>
        <CharString name="fiveinferior">
          -170 81 -7 -69 callsubr
          -9 3 39 -23 51 hhcurveto
          endchar
        </CharString>
        <CharString name="fivesuperior">
          -193 129 313 -69 callsubr
          -10 2 40 -22 51 hhcurveto
          endchar
        </CharString>
        <CharString name="florin">
          -154 413 703 rmoveto
          6 -17 -16 5 -17 hhcurveto
          -83 -81 -57 -106 -31 hvcurveto
          -18 -61 rlineto
          -82 hlineto
          -17 -56 rlineto
          80 hlineto
          -159 -511 -20 -65 -25 -28 -36 -8 rlinecurve
          3 -63 rlineto
          16 hlineto
          26 65 28 121 39 hvcurveto
          168 526 rlineto
          132 hlineto
          16 56 rlineto
          -128 hlineto
          118 37 30 48 69 hhcurveto
          10 12 -2 -6 10 hvcurveto
          endchar
        </CharString>
        <CharString name="four">
          44 445 190 rmoveto
          16 86 rlineto
          -77 hlineto
          75 424 rlineto
          -79 hlineto
          -380 -510 rlineto
          271 hlineto
          -34 -190 rlineto
          98 hlineto
          34 190 rlineto
          -83 86 rmoveto
          -130 hlineto
          175 254 rlineto
          endchar
        </CharString>
        <CharString name="fourinferior">
          -142 261 103 -94 callsubr
        </CharString>
        <CharString name="foursuperior">
          -168 306 423 -94 callsubr
        </CharString>
        <CharString name="g">
          -22 144 -250 rmoveto
          152 94 86 83 84 -97 24 -61 13 hvcurveto
          -86 18 -34 8 23 vvcurveto
          13 10 11 13 9 vhcurveto
          -6 17 20 -3 21 hhcurveto
          131 85 117 107 26 -5 33 -14 29 hvcurveto
          5 17 22 2 6 hhcurveto
          27 hlineto
          19 60 rlineto
          -14 hlineto
          -43 -38 -12 -16 -27 hvcurveto
          25 -29 -33 11 -42 hhcurveto
          -135 -83 -112 -114 -43 12 -49 37 -39 hvcurveto
          -46 -24 -17 -37 -20 vvcurveto
          -13 8 -25 25 -16 vhcurveto
          -79 -33 -19 -63 -35 vvcurveto
          -55 47 -72 139 vhcurveto
          99 678 rmoveto
          51 30 -32 -62 -77 -47 -75 -74 -51 -30 35 63 78 46 70 75 hvcurveto
          58 -523 rmoveto
          -41 -56 -44 -89 -75 -40 31 39 39 40 42 44 15 vhcurveto
          58 -19 118 -2 -60 vvcurveto
          endchar
        </CharString>
        <CharString name="germandbls">
          29 234 -15 rmoveto
          115 115 57 124 hvcurveto
          114 -110 59 30 30 131 66 140 vvcurveto
          100 -81 45 -65 -84 -105 -71 -111 -20 vhcurveto
          -12 -68 rlineto
          -58 hlineto
          -18 -61 rlineto
          65 hlineto
          -101 -575 rlineto
          88 hlineto
          125 709 rlineto
          62 11 40 50 57 hhcurveto
          38 41 -23 -66 hvcurveto
          -138 -137 -49 -49 -47 108 -52 -98 vvcurveto
          -92 -66 -21 -114 -2 vhcurveto
          -10 -60 rlineto
          -1 16 10 -2 21 hhcurveto
          endchar
        </CharString>
        <CharString name="grave">
          -208 326 596 -91 callsubr
        </CharString>
        <CharString name="greater">
          -88 355 284 rmoveto
          -157 -29 callsubr
          -100 hlineto
          157 -206 -230 -22 callsubr
          100 hlineto
          endchar
        </CharString>
        <CharString name="guillemotleft">
          54 457 78 rmoveto
          -98 -43 callsubr
          -130 hmoveto
          -97 -43 callsubr
          endchar
        </CharString>
        <CharString name="guillemotright">
          55 511 284 rmoveto
          -98 -29 callsubr
          -103 hlineto
          97 -206 -170 -22 callsubr
          104 hlineto
          -64 206 rmoveto
          -97 -29 callsubr
          -104 hlineto
          98 -206 -171 -22 callsubr
          104 hlineto
          endchar
        </CharString>
        <CharString name="guilsinglleft">
          -172 231 78 rmoveto
          -105 206 177 -29 callsubr
          -109 hlineto
          -177 -206 105 -22 callsubr
          endchar
        </CharString>
        <CharString name="guilsinglright">
          -171 289 284 rmoveto
          -104 -29 callsubr
          -109 hlineto
          104 -206 -177 -22 callsubr
          109 hlineto
          endchar
        </CharString>
        <CharString name="h">
          25 398 hmoveto
          51 288 3 24 26 vvcurveto
          96 -40 66 -102 -52 -40 -17 -46 -40 vhcurveto
          56 313 rlineto
          -92 hlineto
          -132 -750 rlineto
          91 hlineto
          63 356 rlineto
          44 32 36 20 49 hhcurveto
          56 23 -26 -64 -23 -3 -20 -50 -287 hvcurveto
          endchar
        </CharString>
        <CharString name="hyphen">
          -85 327 -38 callsubr
          -279 -57 callsubr
        </CharString>
        <CharString name="i">
          207 600 rmoveto
          17 100 -40 callsubr
          -17 -100 rlineto
          -15 -600 rmoveto
          86 490 -40 callsubr
          -49 callsubr
          endchar
        </CharString>
        <CharString name="iacute">
          -68 callsubr
          246 660 -92 callsubr
        </CharString>
        <CharString name="icircumflex">
          -68 callsubr
          284 603 -96 callsubr
        </CharString>
        <CharString name="idieresis">
          -68 callsubr
          262 600 -100 callsubr
        </CharString>
        <CharString name="igrave">
          -68 callsubr
          235 596 -91 callsubr
        </CharString>
        <CharString name="j">
          -59 callsubr
          292 842 rmoveto
          18 100 -40 callsubr
          -18 -100 rlineto
          endchar
        </CharString>
        <CharString name="k">
          -53 101 hmoveto
          44 249 115 -249 rlineto
          107 hlineto
          -132 264 216 226 rlineto
          -108 hlineto
          -195 -221 85 481 -40 callsubr
          -132 -750 rlineto
          endchar
        </CharString>
        <CharString name="l">
          -247 175 62 rmoveto
          -41 -15 7 33 15 3 19 108 614 hvcurveto
          -91 hlineto
          -114 -646 -1 -12 -10 vvcurveto
          -50 25 -42 71 vhcurveto
          31 hlineto
          endchar
        </CharString>
        <CharString name="less">
          -89 292 78 rmoveto
          -157 206 230 -29 callsubr
          -100 hlineto
          -230 -206 157 -22 callsubr
          endchar
        </CharString>
        <CharString name="logicalnot">
          70 453 151 rmoveto
          45 255 rlineto
          -414 hlineto
          -11 -60 rlineto
          353 hlineto
          -34 -195 rlineto
          endchar
        </CharString>
        <CharString name="m">
          320 693 hmoveto
          55 314 3 23 23 vvcurveto
          94 -49 46 -93 -83 -57 -37 -61 -35 vhcurveto
          82 -23 -54 16 -53 hhcurveto
          -46 -39 -12 -50 -51 hvcurveto
          52 -72 vlineto
          -49 callsubr
          91 hlineto
          63 356 rlineto
          44 29 41 20 49 hhcurveto
          47 30 -19 -67 -18 -2 -21 -52 -295 hvcurveto
          91 hlineto
          50 284 rlineto
          57 10 29 79 94 hhcurveto
          54 24 -26 -54 -16 -2 -17 -54 -307 hvcurveto
          endchar
        </CharString>
        <CharString name="mu">
          77 475 62 rmoveto
          -18 hlineto
          -21 -8 15 29 17 3 22 4 25 hvcurveto
          56 320 rlineto
          -89 hlineto
          -64 -363 rlineto
          -41 -35 -29 -17 -44 hhcurveto
          -59 -22 33 60 20 2 24 5 26 hvcurveto
          45 258 rlineto
          -90 hlineto
          -129 -732 rlineto
          90 hlineto
          47 269 rlineto
          -33 30 24 -5 33 hhcurveto
          53 39 30 44 39 hvcurveto
          -50 9 28 -23 47 hhcurveto
          29 hlineto
          endchar
        </CharString>
        <CharString name="multiply">
          -68 327 155 rmoveto
          -85 122 128 122 -33 36 -128 -123 -84 123 -46 -36 85 -122 -128 -122 33 -36 127 123 85 -123 rlineto
          endchar
        </CharString>
        <CharString name="n">
          -72 callsubr
          endchar
        </CharString>
        <CharString name="nine">
          55 343 714 rmoveto
          -155 -112 -126 -146 -111 64 -52 87 51 54 18 39 34 hvcurveto
          -49 -178 -146 -76 -85 -44 62 -38 rcurveline
          114 240 216 297 156 -66 45 -93 hvcurveto
          -84 -353 rmoveto
          -66 -19 53 46 79 56 92 85 51 42 -34 -72 -96 -74 -68 -75 hvcurveto
          endchar
        </CharString>
        <CharString name="nineinferior">
          -154 180 386 rmoveto
          -88 -65 -71 -77 -57 39 -30 54 12 35 3 16 18 hvcurveto
          -76 -18 -106 -66 -34 hhcurveto
          39 -28 rlineto
          81 126 128 150 75 -39 33 -54 hvcurveto
          -43 -177 rmoveto
          -25 -11 20 22 32 26 38 38 17 24 -8 -34 -47 -31 -23 -38 hvcurveto
          endchar
        </CharString>
        <CharString name="ninesuperior">
          -179 224 706 rmoveto
          -88 -64 -71 -75 -59 42 -30 51 13 34 3 16 17 hvcurveto
          -76 -16 -106 -66 -35 hhcurveto
          39 -28 rlineto
          81 125 128 150 75 -38 33 -55 hvcurveto
          -42 -177 rmoveto
          -25 -12 20 22 32 26 38 39 17 24 -8 -35 -46 -31 -23 -38 hvcurveto
          endchar
        </CharString>
        <CharString name="ntilde">
          -72 callsubr
          57 599 -103 callsubr
        </CharString>
        <CharString name="numbersign">
          164 649 507 rmoveto
          -101 hlineto
          100 193 rlineto
          -76 hlineto
          -101 -193 rlineto
          -114 hlineto
          101 193 rlineto
          -77 hlineto
          -100 -193 rlineto
          -116 hlineto
          -42 -85 rlineto
          112 hlineto
          -58 -115 rlineto
          -103 hlineto
          -54 -91 rlineto
          108 hlineto
          -117 -227 rlineto
          76 hlineto
          118 227 rlineto
          114 hlineto
          -118 -227 rlineto
          77 hlineto
          117 227 rlineto
          109 hlineto
          55 91 rlineto
          -115 hlineto
          59 115 rlineto
          104 hlineto
          -181 hmoveto
          -59 -115 rlineto
          -114 hlineto
          60 115 rlineto
          endchar
        </CharString>
        <CharString name="o">
          -104 callsubr
          endchar
        </CharString>
        <CharString name="oacute">
          -104 callsubr
          128 240 -92 callsubr
        </CharString>
        <CharString name="ocircumflex">
          -104 callsubr
          167 183 -96 callsubr
        </CharString>
        <CharString name="odieresis">
          -104 callsubr
          145 180 -100 callsubr
        </CharString>
        <CharString name="oe">
          341 778 245 rmoveto
          6 17 12 15 58 vvcurveto
          104 -64 61 -98 -63 -73 -32 -70 -47 vhcurveto
          70 -19 -67 32 -68 hhcurveto
          -166 -109 -137 -163 -118 63 -92 120 76 76 37 70 43 hvcurveto
          -70 19 51 -37 105 hhcurveto
          60 51 15 17 36 hvcurveto
          6 77 rlineto
          -21 -41 -57 -16 -48 hhcurveto
          -47 -65 20 109 16 2 18 3 20 hvcurveto
          145 175 rmoveto
          56 27 -34 -54 -8 -1 -8 -1 -9 hvcurveto
          -213 hlineto
          81 28 43 32 61 hhcurveto
          -337 hmoveto
          69 34 -55 -77 -111 -59 -107 -106 -71 -36 49 81 128 61 92 108 hvcurveto
          endchar
        </CharString>
        <CharString name="ograve">
          -104 callsubr
          117 176 -91 callsubr
        </CharString>
        <CharString name="one">
          -138 191 hmoveto
          123 -34 callsubr
          -73 hlineto
          -32 -44 -69 -51 -45 -14 -3 -89 rcurveline
          28 7 37 14 31 23 -96 -546 rcurveline
          endchar
        </CharString>
        <CharString name="onehalf">
          189 568 700 -56 callsubr
          488 85 rmoveto
          -90 callsubr
          -189 -74 callsubr
          endchar
        </CharString>
        <CharString name="oneinferior">
          -235 110 hmoveto
          -82 callsubr
          endchar
        </CharString>
        <CharString name="onequarter">
          181 167 -74 callsubr
          476 380 -56 callsubr
          499 188 -94 callsubr
        </CharString>
        <CharString name="onesuperior">
          -271 152 -74 callsubr
          endchar
        </CharString>
        <CharString name="ordfeminine">
          -152 326 495 rmoveto
          -11 hlineto
          -11 -5 3 14 6 1 8 2 11 hvcurveto
          17 90 0 11 9 vvcurveto
          55 -34 23 -50 -32 -34 -7 -16 -40 vhcurveto
          -5 -60 rlineto
          13 31 22 7 27 hhcurveto
          32 4 -16 -26 hvcurveto
          -46 -2 -122 -21 -94 vvcurveto
          -43 28 -26 36 31 37 11 20 20 vhcurveto
          -18 7 23 -13 22 hhcurveto
          34 hlineto
          -89 73 rmoveto
          -12 -16 -18 -5 -5 hhcurveto
          -21 -8 8 15 40 58 16 21 1 hvcurveto
          endchar
        </CharString>
        <CharString name="ordmasculine">
          -132 198 434 rmoveto
          100 68 83 87 66 -40 55 -77 -99 -68 -82 -87 -67 40 -55 76 hvcurveto
          41 232 rmoveto
          32 17 -27 -38 -58 -32 -49 -47 -33 -16 27 38 58 32 49 47 hvcurveto
          endchar
        </CharString>
        <CharString name="oslash">
          46 211 -8 rmoveto
          166 112 144 159 65 -21 64 -42 44 hvcurveto
          43 66 rlineto
          -76 hlineto
          -24 -40 rlineto
          9 -26 -20 3 -22 hhcurveto
          -165 -113 -146 -158 -65 20 -64 41 -42 hvcurveto
          -41 -66 rlineto
          74 hlineto
          23 38 rlineto
          -8 27 22 -3 22 hhcurveto
          167 406 rmoveto
          12 -14 4 -44 -30 vvcurveto
          -137 -69 -111 -101 -9 -8 1 5 -23 vhcurveto
          104 368 rmoveto
          9 6 -1 -6 22 hvcurveto
          -192 -329 rlineto
          -10 39 -4 39 28 vvcurveto
          119 68 111 101 vhcurveto
          endchar
        </CharString>
        <CharString name="otilde">
          -104 callsubr
          94 179 -103 callsubr
        </CharString>
        <CharString name="p">
          41 236 -10 rmoveto
          145 101 148 155 114 -55 93 -112 -62 -42 -29 -51 -44 hvcurveto
          3 70 rlineto
          -74 hlineto
          -129 -732 rlineto
          91 hlineto
          53 304 rlineto
          -51 27 44 -21 54 hhcurveto
          56 430 rmoveto
          65 31 -55 -78 -113 -65 -104 -92 -55 -42 38 98 134 79 80 79 hvcurveto
          endchar
        </CharString>
        <CharString name="paragraph">
          91 587 633 rmoveto
          12 67 rlineto
          -234 hlineto
          -197 -105 -138 -120 -95 62 -94 148 -10 hvcurveto
          -43 -243 rlineto
          45 hlineto
          112 633 rlineto
          79 hlineto
          -111 -633 rlineto
          54 hlineto
          112 633 rlineto
          endchar
        </CharString>
        <CharString name="parenleft">
          -223 155 -136 rmoveto
          -26 74 -20 109 116 vvcurveto
          252 93 181 110 154 vhcurveto
          -81 hlineto
          -141 -189 -58 -191 -234 vvcurveto
          -110 16 -95 27 -67 vhcurveto
          endchar
        </CharString>
        <CharString name="parenright">
          -223 32 -136 rmoveto
          140 189 59 191 234 vvcurveto
          110 -17 95 -26 67 vhcurveto
          -81 hlineto
          27 -74 19 -109 -116 vvcurveto
          -252 -92 -181 -110 -154 vhcurveto
          endchar
        </CharString>
        <CharString name="percent">
          291 541 -93 callsubr
          endchar
        </CharString>
        <CharString name="period">
          -273 98 -32 callsubr
        </CharString>
        <CharString name="periodcentered">
          -251 156 213 rmoveto
          23 130 rlineto
          -112 hlineto
          -23 -130 rlineto
          endchar
        </CharString>
        <CharString name="perthousand">
          615 542 -93 callsubr
          627 -667 -41 callsubr
          -64 -89 -88 -91 -145 -88 40 -51 66 hvcurveto
          60 328 rmoveto
          36 24 -38 -61 -102 -47 -78 -65 -39 callsubr
          55 hvcurveto
          endchar
        </CharString>
        <CharString name="plus">
          -56 369 -38 callsubr
          -128 hlineto
          22 128 rlineto
          -76 hlineto
          -22 -128 rlineto
          -129 -64 callsubr
          128 hlineto
          -23 -136 rlineto
          76 -31 callsubr
          endchar
        </CharString>
        <CharString name="plusminus">
          -19 405 327 rmoveto
          12 67 rlineto
          -133 hlineto
          24 138 rlineto
          -66 hlineto
          -25 -138 rlineto
          -133 hlineto
          -12 -67 rlineto
          134 hlineto
          -26 -144 rlineto
          66 hlineto
          26 144 rlineto
          83 -285 rmoveto
          12 67 rlineto
          -333 hlineto
          -12 -67 rlineto
          endchar
        </CharString>
        <CharString name="q">
          40 187 -10 rmoveto
          42 58 24 48 41 hvcurveto
          -54 -304 rlineto
          91 hlineto
          129 732 rlineto
          -74 hlineto
          -21 -70 rlineto
          51 -27 -31 29 -65 hhcurveto
          -150 -105 -152 -159 -113 53 -86 113 hvcurveto
          84 430 rmoveto
          56 43 -40 -99 -134 -79 -77 -78 -68 -29 58 77 114 64 101 91 hvcurveto
          endchar
        </CharString>
        <CharString name="question">
          -63 200 200 rmoveto
          5 27 rlineto
          21 112 190 108 141 vvcurveto
          75 -48 87 -110 -63 -61 -30 -37 -31 vhcurveto
          12 -67 rlineto
          25 19 52 43 57 hhcurveto
          47 41 -31 -67 -145 -162 -61 -24 -135 hvcurveto
          -1 -3 -2 -15 -2 -27 rrcurveto
          41 -200 rmoveto
          16 86 rlineto
          -92 -57 callsubr
        </CharString>
        <CharString name="questiondown">
          -64 212 300 rmoveto
          -5 -27 rlineto
          -21 -112 -190 -108 -141 vvcurveto
          -75 48 -87 109 64 61 30 37 31 vhcurveto
          -12 67 rlineto
          -25 -19 -52 -43 -57 hhcurveto
          -47 -41 31 67 145 162 61 24 135 hvcurveto
          1 3 2 15 2 27 rrcurveto
          -42 200 rmoveto
          -15 -86 rlineto
          92 -62 callsubr
          endchar
        </CharString>
        <CharString name="quotedbl">
          -107 411 750 rmoveto
          -92 hlineto
          -35 -300 rlineto
          56 hlineto
          -126 300 rmoveto
          -93 hlineto
          -35 -300 rlineto
          57 hlineto
          endchar
        </CharString>
        <CharString name="quotedblbase">
          -59 104 hmoveto
          -84 callsubr
          302 109 rmoveto
          -84 callsubr
          endchar
        </CharString>
        <CharString name="quotedblleft">
          -106 105 641 -58 callsubr
          94 -109 -58 callsubr
          endchar
        </CharString>
        <CharString name="quotedblright">
          -123 393 664 rmoveto
          -84 callsubr
          -94 109 rmoveto
          -84 callsubr
          endchar
        </CharString>
        <CharString name="quoteleft">
          -295 105 641 -58 callsubr
          endchar
        </CharString>
        <CharString name="quoteright">
          -312 204 664 rmoveto
          -84 callsubr
          endchar
        </CharString>
        <CharString name="quotesinglbase">
          -51 callsubr
        </CharString>
        <CharString name="quotesingle">
          -298 219 750 rmoveto
          -97 hlineto
          -36 -300 rlineto
          63 hlineto
          endchar
        </CharString>
        <CharString name="r">
          -174 340 508 rmoveto
          -14 hlineto
          -53 -49 -32 -67 -56 hvcurveto
          7 81 rlineto
          -79 hlineto
          -49 callsubr
          94 hlineto
          61 346 rlineto
          31 20 49 32 37 hhcurveto
          33 hlineto
          endchar
        </CharString>
        <CharString name="registered">
          -65 callsubr
          612 rmoveto
          125 58 -94 -126 -182 -102 -167 -181 -126 -57 95 126 182 101 166 182 hvcurveto
          44 -439 rmoveto
          -41 134 rlineto
          36 25 29 34 52 vvcurveto
          58 -35 18 -52 vhcurveto
          -109 hlineto
          -57 -321 rlineto
          64 hlineto
          20 117 rlineto
          43 hlineto
          37 -117 rlineto
          -19 272 rmoveto
          31 10 -14 -22 -41 -20 -22 -40 hvcurveto
          -32 hlineto
          18 99 rlineto
          endchar
        </CharString>
        <CharString name="ring">
          -219 233 576 -87 callsubr
        </CharString>
        <CharString name="s">
          -85 callsubr
          endchar
        </CharString>
        <CharString name="scaron">
          -85 callsubr
          255 709 -77 callsubr
        </CharString>
        <CharString name="section">
          -54 278 188 rmoveto
          100 44 18 81 50 160 -192 -33 102 vvcurveto
          52 47 46 55 39 40 -20 -23 30 vhcurveto
          21 63 rlineto
          19 -20 -50 21 -54 hhcurveto
          -139 -42 -110 -74 -25 7 -31 27 -31 hvcurveto
          -82 -28 -39 -70 -83 -163 198 53 -113 vvcurveto
          -66 -49 -32 -56 -40 -40 18 23 -30 vhcurveto
          -22 -63 rlineto
          -22 18 52 -17 52 hhcurveto
          136 47 107 79 28 -7 28 -25 30 hvcurveto
          -63 250 rmoveto
          36 -9 69 -24 -67 vvcurveto
          -53 -42 -51 -44 -15 vhcurveto
          -60 21 -56 33 56 vvcurveto
          85 73 23 24 1 vhcurveto
          endchar
        </CharString>
        <CharString name="semicolon">
          -262 171 354 -53 callsubr
          -101 -64 callsubr
          34 -355 rmoveto
          16 87 -83 callsubr
          endchar
        </CharString>
        <CharString name="seven">
          -11 522 -24 callsubr
          -410 -64 callsubr
          272 hlineto
          -340 -614 rlineto
          100 hlineto
          endchar
        </CharString>
        <CharString name="seveninferior">
          -167 301 378 -47 callsubr
        </CharString>
        <CharString name="sevensuperior">
          -209 338 698 -47 callsubr
        </CharString>
        <CharString name="six">
          51 211 -14 rmoveto
          152 111 128 142 112 -69 52 -89 -44 -49 -13 -50 -39 hvcurveto
          68 198 130 63 84 44 -57 38 rcurveline
          -110 -1 -249 -243 -277 vvcurveto
          -145 68 -48 93 vhcurveto
          82 353 rmoveto
          66 19 -53 -46 -81 -57 -90 -84 -49 -43 31 75 97 73 67 75 hvcurveto
          endchar
        </CharString>
        <CharString name="sixinferior">
          -155 108 -8 -21 callsubr
          -54 -13 -31 -2 -17 -15 hvcurveto
          60 16 97 82 41 hhcurveto
          -44 28 rlineto
          -51 -152 -116 -162 -54 callsubr
          29 23 39 hvcurveto
          endchar
        </CharString>
        <CharString name="sixsuperior">
          -179 152 312 -21 callsubr
          -53 -13 -32 -2 -17 -15 hvcurveto
          60 16 101 82 37 hhcurveto
          -44 28 rlineto
          -52 -151 -117 -161 -54 callsubr
          30 23 38 hvcurveto
          endchar
        </CharString>
        <CharString name="slash">
          14 531 700 -56 callsubr
          endchar
        </CharString>
        <CharString name="space">
          -256 endchar
        </CharString>
        <CharString name="sterling">
          -13 472 618 rmoveto
          52 -6 -30 36 -78 hhcurveto
          -129 -34 -97 -99 -17 hvcurveto
          -22 -125 rlineto
          -75 hlineto
          -23 -59 rlineto
          84 hlineto
          -36 -134 -41 -98 -81 -94 rrcurveto
          373 hlineto
          12 72 rlineto
          -241 hlineto
          57 106 17 48 23 100 rrcurveto
          164 hlineto
          23 59 rlineto
          -173 hlineto
          18 103 rlineto
          94 17 21 63 72 hhcurveto
          49 9 -27 -38 9 hvcurveto
          endchar
        </CharString>
        <CharString name="t">
          -178 243 62 rmoveto
          -24 hlineto
          -57 -18 3 36 14 3 20 50 285 hvcurveto
          111 hlineto
          13 70 rlineto
          -111 hlineto
          23 130 -92 -9 -22 -121 rlineto
          -64 hlineto
          -20 -70 rlineto
          72 hlineto
          -56 -316 -1 -13 -10 vvcurveto
          -48 26 -43 72 vhcurveto
          75 hlineto
          endchar
        </CharString>
        <CharString name="thorn">
          55 225 -10 rmoveto
          166 106 148 156 113 -60 93 -118 -53 -45 -19 -43 -43 hvcurveto
          55 312 -40 callsubr
          -175 -991 rlineto
          91 hlineto
          52 297 rlineto
          -44 22 37 -22 56 hhcurveto
          69 430 rmoveto
          73 37 -54 -80 -119 -66 -105 -107 -71 -28 58 75 112 45 113 117 hvcurveto
          endchar
        </CharString>
        <CharString name="three">
          29 160 -14 rmoveto
          130 143 92 169 62 -19 54 -52 25 hvcurveto
          86 65 18 54 55 vvcurveto
          75 -33 77 -131 -81 -56 -30 -16 -18 vhcurveto
          3 -81 rlineto
          22 29 44 19 54 hhcurveto
          75 12 -37 -42 -67 -31 -63 -132 hvcurveto
          -36 hlineto
          -23 -76 rlineto
          71 hlineto
          97 22 -48 -60 -115 -80 -48 -80 -53 -42 21 34 -40 hvcurveto
          -39 -88 rlineto
          -14 10 67 -39 85 hhcurveto
          endchar
        </CharString>
        <CharString name="threeinferior">
          -164 80 -8 -97 callsubr
          endchar
        </CharString>
        <CharString name="threequarters">
          333 718 700 -56 callsubr
          -109 397 -97 callsubr
          609 -209 -94 callsubr
        </CharString>
        <CharString name="threesuperior">
          -192 122 312 -97 callsubr
          endchar
        </CharString>
        <CharString name="tilde">
          -5 405 599 -103 callsubr
        </CharString>
        <CharString name="trademark">
          190 473 443 rmoveto
          108 162 -21 -268 rlineto
          57 hlineto
          21 363 rlineto
          -33 hlineto
          -121 -179 -59 179 rlineto
          -32 hlineto
          -107 -363 rlineto
          55 hlineto
          76 269 49 -163 rlineto
          -124 257 rmoveto
          -239 hlineto
          -9 -50 rlineto
          90 hlineto
          -55 -313 rlineto
          54 hlineto
          56 313 rlineto
          88 hlineto
          endchar
        </CharString>
        <CharString name="two">
          8 380 -48 callsubr
          -208 hlineto
          200 258 65 112 104 vvcurveto
          75 -35 79 -109 -108 -74 -76 -21 -16 vhcurveto
          -3 -85 rlineto
          38 31 56 55 74 hhcurveto
          57 30 -32 -59 -74 -48 -82 -304 -378 hvcurveto
          endchar
        </CharString>
        <CharString name="twoinferior">
          -166 214 hmoveto
          -90 callsubr
          endchar
        </CharString>
        <CharString name="twosuperior">
          -195 256 320 rmoveto
          -90 callsubr
          endchar
        </CharString>
        <CharString name="u">
          -99 callsubr
          endchar
        </CharString>
        <CharString name="uacute">
          -99 callsubr
          108 660 -92 callsubr
        </CharString>
        <CharString name="ucircumflex">
          -99 callsubr
          146 603 -96 callsubr
        </CharString>
        <CharString name="udieresis">
          -99 callsubr
          125 600 -100 callsubr
        </CharString>
        <CharString name="ugrave">
          -99 callsubr
          96 596 -91 callsubr
        </CharString>
        <CharString name="underscore">
          30 434 -122 -53 callsubr
          -504 -57 callsubr
        </CharString>
        <CharString name="uni00AD">
          -84 326 230 rmoveto
          17 94 rlineto
          -279 hlineto
          -17 -94 rlineto
          endchar
        </CharString>
        <CharString name="v">
          -42 466 490 rmoveto
          -97 hlineto
          -187 -391 -51 391 rlineto
          -96 hlineto
          83 -490 rlineto
          93 hlineto
          endchar
        </CharString>
        <CharString name="w">
          181 682 490 rmoveto
          -100 hlineto
          -151 -391 -25 376 rlineto
          -87 hlineto
          -157 -376 -13 391 rlineto
          -100 hlineto
          46 -490 rlineto
          91 hlineto
          157 362 28 -362 rlineto
          92 hlineto
          endchar
        </CharString>
        <CharString name="x">
          -42 375 hmoveto
          -120 238 203 252 rlineto
          -107 hlineto
          -129 -190 -66 190 rlineto
          -104 hlineto
          105 -244 -194 -246 rlineto
          104 hlineto
          128 191 76 -191 rlineto
          endchar
        </CharString>
        <CharString name="y">
          -73 callsubr
          endchar
        </CharString>
        <CharString name="yacute">
          -73 callsubr
          290 902 -92 callsubr
        </CharString>
        <CharString name="ydieresis">
          -73 callsubr
          305 842 -100 callsubr
        </CharString>
        <CharString name="yen">
          145 664 -24 callsubr
          -95 hlineto
          -241 -307 -133 307 rlineto
          -95 hlineto
          161 -384 rlineto
          -131 hlineto
          -29 -50 rlineto
          157 hlineto
          -12 -66 rlineto
          -137 hlineto
          -29 -54 rlineto
          156 hlineto
          -25 -146 rlineto
          95 hlineto
          26 146 rlineto
          130 hlineto
          30 54 rlineto
          -150 hlineto
          11 66 rlineto
          130 hlineto
          30 50 rlineto
          -145 hlineto
          endchar
        </CharString>
        <CharString name="z">
          -60 callsubr
          endchar
        </CharString>
        <CharString name="zcaron">
          -60 callsubr
          276 629 -77 callsubr
        </CharString>
        <CharString name="zero">
          186 278 -14 rmoveto
          188 152 197 246 180 -81 105 -127 -174 -169 -195 -258 -170 73 -105 138 hvcurveto
          117 642 rmoveto
          72 54 -62 -147 -202 -102 -145 -126 -78 -49 56 140 221 122 139 107 hvcurveto
          endchar
        </CharString>
        <CharString name="zeroinferior">
          -77 145 -8 -70 callsubr
        </CharString>
        <CharString name="zerosuperior">
          -102 189 312 -70 callsubr
        </CharString>
</ttFont>
